<?xml version="1.0" encoding="UTF-8" standalone="no"?>
<!-- The icon can be used freely in both personal and commercial projects with no attribution required, but always appreciated. 
You may NOT sub-license, resell, rent, redistribute or otherwise transfer the icon without express written permission from iconmonstr.com -->
<svg xmlns:dc="http://purl.org/dc/elements/1.1/" xmlns:cc="http://creativecommons.org/ns#" xmlns:rdf="http://www.w3.org/1999/02/22-rdf-syntax-ns#" xmlns:svg="http://www.w3.org/2000/svg" xmlns="http://www.w3.org/2000/svg" xmlns:sodipodi="http://sodipodi.sourceforge.net/DTD/sodipodi-0.dtd" xmlns:inkscape="http://www.inkscape.org/namespaces/inkscape" version="1.1" x="0px" y="0px" width="40px" height="40px" fill="#666666" viewBox="0 0 512 512" enable-background="new 0 0 512 512" xml:space="preserve" id="svg2" inkscape:version="0.91 r13725" sodipodi:docname="close-button.svg"><metadata id="metadata9"><rdf:RDF><cc:Work rdf:about=""><dc:format>image/svg+xml</dc:format><dc:type rdf:resource="http://purl.org/dc/dcmitype/StillImage"/></cc:Work></rdf:RDF></metadata><defs id="defs7"/><sodipodi:namedview pagecolor="#ffffff" bordercolor="#666666" borderopacity="1" objecttolerance="10" gridtolerance="10" guidetolerance="10" inkscape:pageopacity="0" inkscape:pageshadow="2" inkscape:window-width="832" inkscape:window-height="602" id="namedview5" showgrid="false" inkscape:zoom="5.9" inkscape:cx="20.59322" inkscape:cy="20" inkscape:window-x="671" inkscape:window-y="171" inkscape:window-maximized="0" inkscape:current-layer="svg2"/><path id="x-mark-4-icon" d="m 512.0768,255.9232 c 0,141.38532 -114.61468,256 -256,256 -141.38532,0 -256,-114.61468 -256,-256 0,-141.38532 114.61468,-256 256,-256 141.38532,0 256,114.61468 256,256 z m -49.70874,0 c 0,-114.02563 -92.28178,-206.291262 -206.29126,-206.291262 -114.02563,0 -206.291262,92.283032 -206.291262,206.291262 0,114.02563 92.281782,206.29126 206.291262,206.29126 114.02563,0 206.29126,-92.28303 206.29126,-206.29126 z m -120.13483,132.33709 -83.66851,-83.66478 -83.67099,83.67472 -44.94167,-44.96901 83.65235,-83.66229 -83.66105,-83.65608 44.96777,-44.94167 83.64738,83.63619 83.63495,-83.64613 44.97771,44.94913 -83.64987,83.65359 83.65981,83.64738 -44.94788,44.97895 z" inkscape:connector-curvature="0"/></svg>